<svg width="1561" height="1572" viewBox="0 0 1561 1572" fill="none" xmlns="http://www.w3.org/2000/svg">
<g clip-path="url(#clip0_70_7)">
<path d="M1227.96 87.1699H290.89C163.837 87.1699 60.84 190.167 60.84 317.22V1254.29C60.84 1381.34 163.837 1484.34 290.89 1484.34H1227.96C1355.01 1484.34 1458.01 1381.34 1458.01 1254.29V317.22C1458.01 190.167 1355.01 87.1699 1227.96 87.1699Z" fill="#FAD002"/>
<path d="M1261.73 331.59C1261.84 349.36 1259.45 360.39 1259.45 360.39L854.01 396.87L824.9 399.51L806.35 401.17C806.35 401.17 751.9 390.49 678.85 374.9C585.65 355.06 462.04 327.19 382.57 303.36C342.26 291.28 313.25 280.2 305.27 271.7C294.81 260.51 292.68 244.3 296.88 227.04C306.41 188.45 347.75 144.88 399.25 142.04C399.509 142.068 399.771 142.068 400.03 142.04C403.426 141.805 406.834 141.805 410.23 142.04C411.232 142.037 412.234 142.09 413.23 142.2C415.14 142.35 417.01 142.45 418.93 142.45H419.29C426.759 142.399 434.186 141.319 441.36 139.24C445.04 138.24 448.77 136.91 452.5 135.46C522.33 107.85 599.21 7.95996 720.08 7.95996C863.95 7.95996 995.8 55.89 1142.08 142.2C1168.6 157.84 1189.38 175.04 1205.59 192.66C1215.59 203.393 1224.46 215.121 1232.07 227.66C1234.97 232.42 1237.61 237.15 1239.99 241.85C1254.04 269.694 1261.48 300.403 1261.73 331.59Z" fill="#FB1F1B" stroke="#993333" stroke-width="16" stroke-miterlimit="10"/>
<path d="M1341.1 545.5C1322.4 611.71 1341.1 670.77 1341.1 670.77L1034.41 657.77L650.73 593.06L582.23 581.51C582.23 581.51 227.98 693.8 148.73 643.42C135.05 634.71 124.89 625.91 117.59 617.1C82.59 574.93 114.17 533.59 148.73 510.95C190.48 483.59 173.23 436.03 173.23 343.87C173.23 317.34 189.55 290.61 218.67 267.76C238.92 251.86 265.34 237.82 296.79 227.04C377.3 199.43 490.6 193.21 616.79 231.55C863.03 306.46 873.08 244.5 1113.57 279.11C1178.79 288.49 1226.77 307.5 1261.68 331.59C1299.09 357.34 1321.42 388.94 1333.95 420.65C1352.81 468.41 1349.29 516.49 1341.1 545.5Z" fill="#FB1F1B" stroke="#993333" stroke-width="16" stroke-miterlimit="10"/>
<path d="M1266.24 1073.98C1243.24 1153.15 1274.84 1177.65 1266.24 1253.98C1257.64 1330.31 1192.78 1313.04 1115.02 1399.4C1084.87 1432.92 1071.4 1462.97 1059.48 1487.89C1040.67 1527.37 1025.75 1554.2 955.24 1562.13C913.85 1566.79 884.53 1559.33 857.38 1547.26C809.04 1525.71 767.7 1489.34 677.3 1480.12C536.13 1465.64 390.73 1441.14 308.73 1324.52C226.73 1207.9 350.44 1111.39 298.58 1060.98C295.653 1058.16 292.951 1055.11 290.5 1051.86C250.92 1000.63 284.18 921.41 284.18 921.41L312.36 711.13L321.63 641.97C321.63 641.97 371.84 608.5 446.96 588.45C500.26 574.2 566.16 566.79 635.53 582.91C662.167 589.206 689.154 593.911 716.35 597C718.01 597.2 719.67 597.36 721.27 597.52C827.06 608.29 873.12 582.91 873.12 582.91H962.43L1227.38 644.91C1227.38 644.91 1254.47 736.66 1277.27 815.04C1289.34 856.54 1300.16 894.31 1305.14 912.75C1318.14 960.62 1294.98 988.7 1273.48 1051.38C1271.01 1058.44 1268.57 1065.95 1266.24 1073.98Z" fill="#F8ACEC" stroke="#990066" stroke-width="16" stroke-miterlimit="10"/>
<path d="M1059.43 1487.87C1040.62 1527.35 1025.7 1554.18 955.19 1562.11C913.8 1566.77 884.48 1559.31 857.33 1547.24C857.33 1547.24 902.87 1404.8 1059.43 1487.87Z" fill="#055AD6" stroke="#333394" stroke-width="16" stroke-miterlimit="10"/>
<path d="M622.89 623.26C545.12 598.76 530.72 626.11 536.47 656.37C542.22 686.63 569.63 725.48 503.37 734.13C437.11 742.78 405.45 775.89 431.37 833.5C457.29 891.11 451.52 990.42 355.06 961.67C258.6 932.92 265.79 990.42 280.19 1027.88C294.59 1065.34 278.74 1112.88 238.44 1101.34C198.6 1089.94 214.97 1050.52 190.44 1031.55C190.13 1031.24 189.77 1031.04 189.44 1030.78C163.44 1012.02 94.37 970.47 141.88 921.41C189.39 872.35 241.25 843.55 221.09 817.64C200.93 791.73 173.59 824.84 137.58 869.5C101.57 914.16 71.32 931.41 29.58 898.31C-12.16 865.21 3.68 817.64 103.05 754.31C202.42 690.98 64.15 670.8 166.42 613.16C268.69 555.52 249.93 555.55 239.83 502.29C229.73 449.03 265.78 382.8 314.73 402.93C363.68 423.06 305.66 518.56 339.18 533.93C392.49 558.43 422.64 520.61 473.1 510.93C510.56 503.72 683.34 525.33 693.44 578.59C693.45 578.61 700.65 647.72 622.89 623.26Z" fill="#055AD6" stroke="#333394" stroke-width="16" stroke-miterlimit="10"/>
<path d="M1004.15 1195.42C1004.15 1195.42 899.73 1283.86 806.43 1265.8C677.11 1240.72 668.96 1201.58 622.97 1161.23C578.21 1121.98 518.14 1166 529.55 1207.83C540.96 1249.66 653.86 1405.06 855.63 1405.06C1057.4 1405.06 1153.52 1279.16 1157.51 1219.22C1161.73 1155.5 1104.92 1114.62 1004.15 1195.42Z" fill="white" stroke="#990066" stroke-width="16" stroke-miterlimit="10"/>
<path d="M699.17 802.56C699.69 817.21 710.74 851.29 716.17 870.35C734.71 935.04 687.35 946.35 692.9 1008.09L531.06 1007.23C533.229 993.925 536.919 980.913 542.06 968.45C569.92 898.91 569.92 875.71 539.55 827.53C534.536 819.758 531.533 810.861 530.81 801.64" fill="#FEFF00"/>
<path d="M699.17 802.56C699.69 817.21 710.74 851.29 716.17 870.35C734.71 935.04 687.35 946.35 692.9 1008.09L531.06 1007.23C533.229 993.925 536.919 980.913 542.06 968.45C569.92 898.91 569.92 875.71 539.55 827.53C534.536 819.758 531.533 810.861 530.81 801.64" stroke="#AC7C00" stroke-width="16" stroke-miterlimit="10"/>
<path d="M747.73 982.94C747.73 982.94 743.54 1113.68 617 1113.68C490.46 1113.68 485.07 981.74 485.07 981.74L747.73 982.94Z" fill="#79F902" stroke="#339966" stroke-width="16" stroke-miterlimit="10"/>
<path d="M747.73 802.69L721.31 802.56L509.66 801.64L485.08 801.5C485.08 801.5 489.29 670.8 615.81 670.8C674.57 670.8 707.17 699.26 725.25 729.69C729.332 736.57 732.87 743.758 735.83 751.19C742.378 767.656 746.391 785.02 747.73 802.69V802.69Z" fill="#79F902" stroke="#339966" stroke-width="16" stroke-miterlimit="10"/>
<path d="M1142.18 776.21C1142.71 790.87 1153.75 824.94 1159.18 844.01C1177.72 908.7 1130.37 920.01 1135.91 981.74L974.07 980.89C976.237 967.584 979.928 954.572 985.07 942.11C1012.93 872.57 1012.93 849.37 982.56 801.19C977.547 793.414 974.547 784.514 973.83 775.29" fill="#FEFF00"/>
<path d="M1142.18 776.21C1142.71 790.87 1153.75 824.94 1159.18 844.01C1177.72 908.7 1130.37 920.01 1135.91 981.74L974.07 980.89C976.237 967.584 979.928 954.572 985.07 942.11C1012.93 872.57 1012.93 849.37 982.56 801.19C977.547 793.414 974.547 784.514 973.83 775.29" stroke="#AC7C00" stroke-width="16" stroke-miterlimit="10"/>
<path d="M1172.31 956.29C1172.31 956.29 1168.71 1068.65 1059.95 1068.65C951.19 1068.65 946.55 955.26 946.55 955.26L1172.31 956.29Z" fill="#79F902" stroke="#339966" stroke-width="16" stroke-miterlimit="10"/>
<path d="M1188.46 811.91L1164.12 811.79L969.19 810.94L946.55 810.82C946.55 810.82 950.43 690.41 1066.96 690.41C1121.08 690.41 1151.11 716.62 1167.76 744.65C1171.51 750.988 1174.77 757.608 1177.5 764.45C1183.54 779.624 1187.23 795.626 1188.46 811.91V811.91Z" fill="#79F902" stroke="#339966" stroke-width="16" stroke-miterlimit="10"/>
<path d="M858.73 585.8C857.86 593.09 840.01 660.68 965.29 665C1090.57 669.32 937.93 774.44 1034.41 827.71C1130.89 880.98 1156.81 806.12 1231.69 839.23C1306.57 872.34 1217.29 973.15 1289.29 994.75C1361.29 1016.35 1358.41 948.67 1385.77 915.55C1413.13 882.43 1482.25 932.83 1452.01 978.91C1421.77 1024.99 1393.01 1094.11 1453.45 1081.15C1513.89 1068.19 1610.45 911.23 1508.17 834.91C1405.89 758.59 1535.53 725.48 1542.76 654.91C1549.38 590.38 1489.45 552.67 1460.65 562.75C1431.85 572.83 1431.85 616.03 1447.65 652.03C1463.45 688.03 1398.65 739.87 1306.53 601.63C1214.41 463.39 1141.53 625.82 1070.37 569.95C1030.06 538.29 873.1 464.85 858.73 585.8Z" fill="#055AD6" stroke="#333394" stroke-width="16" stroke-miterlimit="10"/>
<path d="M868.03 1264.39C868.03 1264.39 879.66 1349.39 875.03 1405.03" stroke="#8B006D" stroke-width="16" stroke-miterlimit="10"/>
<path d="M961.51 1225.34C961.51 1225.34 993.32 1328.45 991.6 1382.93" stroke="#8B006D" stroke-width="16" stroke-miterlimit="10"/>
<path d="M760.29 1254.87C760.29 1254.87 739.41 1326.45 735.8 1385.43" stroke="#8B006D" stroke-width="16" stroke-miterlimit="10"/>
<path d="M661.53 1199.95C661.53 1199.95 624.19 1269.63 618.81 1320.15" stroke="#8B006D" stroke-width="16" stroke-miterlimit="10"/>
<path d="M1052.56 1163.8C1052.56 1163.8 1117.82 1218.17 1113.61 1304.11" stroke="#8B006D" stroke-width="16" stroke-miterlimit="10"/>
<path d="M296.83 227.04C306.36 188.45 347.7 144.88 399.2 142.04C399.459 142.068 399.721 142.068 399.98 142.04C403.376 141.805 406.784 141.805 410.18 142.04C411.182 142.037 412.184 142.09 413.18 142.2C415.09 142.35 416.96 142.45 418.88 142.45H419.24C426.709 142.399 434.136 141.319 441.31 139.24C444.99 138.24 448.72 136.91 452.45 135.46C522.28 107.85 599.16 7.95996 720.03 7.95996C863.9 7.95996 995.75 55.89 1142.03 142.2C1168.55 157.84 1189.33 175.04 1205.54 192.66C1215.54 203.393 1224.41 215.121 1232.02 227.66C1234.92 232.42 1237.56 237.15 1239.94 241.85C1254.01 269.69 1261.46 300.399 1261.73 331.59" stroke="#993333" stroke-width="16" stroke-miterlimit="10"/>
</g>
<defs>
<clipPath id="clip0_70_7">
<rect width="1560.94" height="1571.51" fill="white"/>
</clipPath>
</defs>
</svg>
